<svg width="20" height="20" viewBox="0 0 20 20" fill="none" xmlns="http://www.w3.org/2000/svg">
<path fill-rule="evenodd" clip-rule="evenodd" d="M9.2946 10.0017L10.3542 11.0613L8.93994 12.4755L7.88039 11.4159C6.31786 9.8534 6.31593 7.32132 7.87727 5.75998L12.1239 1.51331C13.6851 -0.0478197 16.2214 -0.0420163 17.7853 1.52187L18.4793 2.21589C20.0433 3.77987 20.0471 6.31808 18.4882 7.87701L15.3039 11.0613L13.8897 9.64705L17.0739 6.4628C17.8509 5.68586 17.849 4.41397 17.0651 3.6301L16.3711 2.93608C15.5868 2.1518 14.3168 2.14889 13.5382 2.92753L9.29148 7.17419C8.51167 7.954 8.51264 9.21975 9.2946 10.0017ZM10.7066 9.9995L9.64705 8.93995L11.0613 7.52573L12.1208 8.58529C13.6833 10.1478 13.6853 12.6799 12.1239 14.2412L7.87727 18.4879C6.31614 20.049 3.77977 20.0432 2.21589 18.4793L1.52187 17.7853C-0.0449045 16.2186 -0.0473416 13.6846 1.5205 12.1168L4.6973 8.93995L6.11152 10.3542L2.93471 13.531C2.14853 14.3171 2.14975 15.5848 2.93608 16.3711L3.6301 17.0651C4.41438 17.8494 5.68443 17.8523 6.46306 17.0737L10.7097 12.827C11.4895 12.0472 11.4886 10.7815 10.7066 9.9995Z" fill="#333333"/>
</svg>
